<svg width="24" height="24" viewBox="0 0 24 24" fill="none" xmlns="http://www.w3.org/2000/svg">
<path d="M22 1.59998H2C0.896 1.60128 0.0013 2.49598 0 3.59998V11.6C0.0013 12.704 0.896 13.5987 2 13.6H22C23.104 13.5987 23.9987 12.704 24 11.6V3.59998C23.9987 2.49598 23.104 1.60128 22 1.59998ZM2.8 2.39998H21.2V3.59998C21.2 4.26273 20.6628 4.79998 20 4.79998H4C3.33725 4.79998 2.8 4.26273 2.8 3.59998V2.39998ZM21.2 12.8H2.8V12.4H21.2V12.8ZM21.2 11.6H2.8V11.2H21.2V11.6ZM21.2 10.4H2.8V9.99998H21.2V10.4ZM23.2 11.6C23.2 12.2627 22.6628 12.8 22 12.8V9.59998C22 9.37908 21.8209 9.19998 21.6 9.19998H2.4C2.1791 9.19998 2 9.37908 2 9.59998V12.8C1.33725 12.8 0.8 12.2627 0.8 11.6V3.59998C0.8 2.93723 1.33725 2.39998 2 2.39998V3.59998C2.0013 4.70398 2.896 5.59868 4 5.59998H20C21.104 5.59868 21.9987 4.70398 22 3.59998V2.39998C22.6628 2.39998 23.2 2.93723 23.2 3.59998V11.6Z" fill="black"/>
<path d="M13.1996 8H9.99961C9.77871 8 9.59961 8.1791 9.59961 8.4C9.59961 8.6209 9.77871 8.8 9.99961 8.8H13.1996C13.4205 8.8 13.5996 8.6209 13.5996 8.4C13.5996 8.1791 13.4205 8 13.1996 8Z" fill="black"/>
<path d="M20.3996 6.40002H19.9996C19.7787 6.40002 19.5996 6.57912 19.5996 6.80002C19.5996 7.02092 19.7787 7.20002 19.9996 7.20002H20.3996C20.6205 7.20002 20.7996 7.02092 20.7996 6.80002C20.7996 6.57912 20.6205 6.40002 20.3996 6.40002Z" fill="black"/>
<path d="M22.0002 6.40002H21.6002C21.3793 6.40002 21.2002 6.57912 21.2002 6.80002C21.2002 7.02092 21.3793 7.20002 21.6002 7.20002H22.0002C22.2211 7.20002 22.4002 7.02092 22.4002 6.80002C22.4002 6.57912 22.2211 6.40002 22.0002 6.40002Z" fill="black"/>
<path d="M12.8004 14.8C12.8004 14.5791 12.6213 14.4 12.4004 14.4C12.1795 14.4 12.0004 14.5791 12.0004 14.8C12.0077 15.1549 11.8899 15.5009 11.6676 15.7776C11.0447 16.6232 11.0447 17.7757 11.6676 18.6212C12.1113 19.198 12.1113 20.0012 11.6676 20.578C11.3575 20.9866 11.1931 21.4872 11.2004 22C11.2004 22.2209 11.3795 22.4 11.6004 22.4C11.8213 22.4 12.0004 22.2209 12.0004 22C11.9931 21.6449 12.1109 21.2986 12.3332 21.0216C12.9556 20.1756 12.9556 19.0232 12.3332 18.1772C11.8896 17.6007 11.8896 16.7977 12.3332 16.2212C12.6433 15.813 12.8078 15.3126 12.8004 14.8Z" fill="black"/>
<path d="M9.60024 14.8C9.60024 14.5791 9.42114 14.4 9.20024 14.4C8.97934 14.4 8.80024 14.5791 8.80024 14.8C8.80749 15.1549 8.68969 15.5009 8.46744 15.7776C7.84454 16.6232 7.84454 17.7757 8.46744 18.6212C8.91109 19.198 8.91109 20.0012 8.46744 20.578C8.15734 20.9866 7.99289 21.4872 8.00024 22C8.00024 22.2209 8.17934 22.4 8.40024 22.4C8.62114 22.4 8.80024 22.2209 8.80024 22C8.79294 21.6449 8.91074 21.2986 9.13304 21.0216C9.75539 20.1756 9.75539 19.0232 9.13304 18.1772C8.68939 17.6007 8.68939 16.7977 9.13304 16.2212C9.44314 15.813 9.60759 15.3126 9.60024 14.8Z" fill="black"/>
<path d="M16.0006 14.8C16.0006 14.5791 15.8215 14.4 15.6006 14.4C15.3797 14.4 15.2006 14.5791 15.2006 14.8C15.2079 15.1549 15.0901 15.5009 14.8678 15.7776C14.2449 16.6232 14.2449 17.7757 14.8678 18.6212C15.3115 19.198 15.3115 20.0012 14.8678 20.578C14.5577 20.9866 14.3933 21.4872 14.4006 22C14.4006 22.2209 14.5797 22.4 14.8006 22.4C15.0215 22.4 15.2006 22.2209 15.2006 22C15.1933 21.6449 15.3111 21.2986 15.5334 21.0216C16.1558 20.1756 16.1558 19.0232 15.5334 18.1772C15.0898 17.6007 15.0898 16.7977 15.5334 16.2212C15.8435 15.813 16.008 15.3126 16.0006 14.8Z" fill="black"/>
</svg>
